<svg width="16" height="16" xmlns="http://www.w3.org/2000/svg">

 <g>
  <title>background</title>
  <rect fill="none" id="canvas_background" height="602" width="802" y="-1" x="-1"/>
 </g>
 <g>
  <title>Layer 1</title>
  <path fill="#ffffff" id="svg_1" d="m1.592,2.712l0.788,4.538l4.87,0a0.75,0.75 0 1 1 0,1.5l-4.87,0l-0.788,4.538l12.337,-5.288l-12.337,-5.288zm-0.603,5.288l-0.925,-5.32a1.341,1.341 0 0 1 1.85,-1.462l13.402,5.744a1.13,1.13 0 0 1 0,2.076l-13.403,5.744a1.341,1.341 0 0 1 -1.85,-1.463l0.927,-5.319l-0.001,0z" fill-rule="evenodd"/>
 </g>
</svg>